<svg xmlns="http://www.w3.org/2000/svg" width="158.62" height="70.84" viewBox="0 0 158.62 70.84"><defs><style>.cls-1{fill:#fff;}</style></defs><title>logo_ds_v</title><g id="Layer_2" data-name="Layer 2"><g id="Layer_1-2" data-name="Layer 1"><path class="cls-1" d="M16.55,68.61a.87.87,0,0,1,.85.94c0,.91-.88,1-1.31,1a2.67,2.67,0,0,1-3-2.31c0-.2-.07-.32-.16-.32s-.07,0-.13.09A6.79,6.79,0,0,1,7.4,70.76C3.16,70.76,0,67.7,0,63c0-4.56,3.16-7.72,7.39-7.72a6.56,6.56,0,0,1,5.15,2.34c.16.23.26.39.33.39s.09-.16.09-.59c0-1.66,0-4,0-5.86,0-2.21,0-2.77-1.31-2.77a3.31,3.31,0,0,0-.52,0H11.1a.85.85,0,0,1-.91-.85,1,1,0,0,1,1-1l1.08,0c2.05,0,2.6,1.3,2.6,2.7v.13c0,2.74-.06,8-.06,12.48v4.43c0,1.56.56,2,1.27,2,.16,0,.3,0,.43,0ZM13,63c0-3.64-2.41-6-5.5-6-3.29,0-5.54,2.28-5.54,6s2.28,6,5.54,6C10.52,69,13,66.59,13,63Z"/><path class="cls-1" d="M30.68,68.38c0-.1-.06-.17-.13-.17a.22.22,0,0,0-.13.1,6,6,0,0,1-5,2.51c-3.29,0-5.28-2.24-5.28-4.49,0-1.63,1.08-3.29,3.49-4a53.06,53.06,0,0,1,6-1.34c.4-.06.53-.16.53-.39s0-.36,0-.52c0-1.79-.75-3.19-3.39-3.19a5.14,5.14,0,0,0-3.81,1.56.92.92,0,0,1-.69.33.89.89,0,0,1-.91-.88c0-1.24,2.74-2.64,5.54-2.64,3,0,5.08,1.33,5.08,5,0,.29,0,.59,0,.91-.1,1.08-.16,2.77-.16,4,0,2.38.23,3.16,1.53,3.61a.83.83,0,0,1,.55.82.88.88,0,0,1-.88.91A2.78,2.78,0,0,1,30.68,68.38Zm-.49-5V63c0-.26-.09-.36-.32-.36h-.1c-5.11.82-7.82,1.47-7.82,3.75,0,1.37,1.31,2.74,3.49,2.74C27.1,69.09,30.19,68.41,30.19,63.39Z"/><path class="cls-1" d="M41.53,57.3c-.52,0-.52.07-.52.46,0,1.23-.1,4.59-.1,7S41,69,43.52,69c.29,0,.58,0,.91-.07h.13a.8.8,0,0,1,.78.85c0,.84-.78,1-2.08,1-4.17,0-4.17-3.55-4.17-5,0-2.08.06-6,.06-7.65v-.52c0-.33-.1-.36-.33-.36H36.9a.87.87,0,1,1,0-1.73h1.89c.29,0,.36,0,.36-.32,0-.13,0-1.69,0-2.84V51.6a.95.95,0,1,1,1.89.07c0,.94-.07,3.55-.07,3.55,0,.35.07.35.49.35h2.9a.87.87,0,1,1,0,1.73Z"/><path class="cls-1" d="M59,68.37c0-.1-.06-.16-.13-.16a.18.18,0,0,0-.13.1,6,6,0,0,1-4.95,2.51c-3.29,0-5.27-2.25-5.27-4.5,0-1.63,1.07-3.29,3.48-4a52.7,52.7,0,0,1,6-1.34c.39-.06.52-.16.52-.39s0-.35,0-.52c0-1.79-.75-3.19-3.39-3.19a5.11,5.11,0,0,0-3.81,1.57.94.94,0,0,1-.68.32.89.89,0,0,1-.92-.88c0-1.24,2.74-2.64,5.54-2.64,3,0,5.08,1.34,5.08,5,0,.29,0,.58,0,.91-.1,1.07-.16,2.76-.16,4,0,2.38.23,3.16,1.53,3.62a.82.82,0,0,1,.55.81.87.87,0,0,1-.87.91A2.76,2.76,0,0,1,59,68.37Zm-.49-5V63c0-.26-.09-.35-.32-.35H58c-5.11.81-7.82,1.46-7.82,3.74,0,1.37,1.31,2.74,3.49,2.74C55.37,69.09,58.46,68.4,58.46,63.39Z"/><path class="cls-1" d="M75.07,56.05c0,.69,0,1.14,0,1.63s0,1,0,1.7v.06a.79.79,0,0,1-.81.78.83.83,0,0,1-.91-.84c0-2.61-2.9-2.61-3.1-2.61-1.69,0-2.64,1-2.64,2.09A2.52,2.52,0,0,0,69.21,61c.91.42,2.48,1.07,3.49,1.59,2,1,2.9,2.58,2.9,4,0,1.79-1.44,4.2-5.15,4.2a5.06,5.06,0,0,1-3.25-1.07.42.42,0,0,0-.23-.13c-.07,0-.1.06-.1.16,0,.82-.39.91-.78.91a.78.78,0,0,1-.85-.78v-.06c0-.72.06-1.21.06-1.7s0-1-.06-1.75v-.07a.86.86,0,0,1,.91-.85.84.84,0,0,1,.88.88c0,.23-.06.39-.06.62,0,1.08,1.62,2.15,3.48,2.15,1.66,0,3.26-1,3.26-2.51,0-1.73-1.44-2.51-5.21-4.07A3.92,3.92,0,0,1,65.86,59c0-1.88,1.53-3.74,4.42-3.74a5.24,5.24,0,0,1,2.87.88.26.26,0,0,0,.2.06c.16,0,.13-.29.16-.39a.73.73,0,0,1,.75-.52.76.76,0,0,1,.81.78Z"/><path class="cls-1" d="M93.35,70.38c-.85,0-1.63-.06-2.35-.06s-1.43,0-2.18.06h-.06a.82.82,0,0,1-.88-.84.76.76,0,0,1,.87-.85c.85,0,.85-.2.85-.23a.25.25,0,0,0-.06-.13c-1.73-1.69-4.4-4.17-5.41-5.21a1.16,1.16,0,0,0-1-.39c-.49,0-.52.29-.52,2,0,.78,0,1.82,0,3.38a.51.51,0,0,0,.56.56,8.92,8.92,0,0,0,.91,0h0a.88.88,0,1,1,0,1.75h0c-.85,0-1.69-.06-2.54-.06s-1.6,0-2.34.07a.85.85,0,0,1-1-.85.89.89,0,0,1,.94-.91h0c.4,0,.46,0,1,0a.52.52,0,0,0,.56-.55c.06-3.43.09-7.82.09-11.8,0-2.28,0-4.46,0-6.22,0-.91-.26-1.27-1.08-1.3H79a.89.89,0,0,1-.91-.91c0-.85.59-1,1.73-1,2.67,0,2.9,1.73,2.9,2.45,0,4.2-.07,11.1-.07,11.1a.49.49,0,0,0,.56.52c.35,0,.49,0,5.63-3.58.1-.07.13-.13.13-.16s-.06-.1-.23-.1c-.58,0-1.36,0-1.36-.78a.82.82,0,0,1,.87-.85h.07c.81,0,1.53,0,2.28,0s1.5,0,2.34,0a.8.8,0,0,1,1,.85.86.86,0,0,1-.91.84h0c-.45,0-.19,0-.65,0a1.56,1.56,0,0,0-.81.29c-1.92,1.31-4.43,3-6,4-.19.13-.26.23-.26.33s.85,1,6.75,6.41a1.19,1.19,0,0,0,.94.4c.13,0,.3,0,.49,0a.81.81,0,0,1,.91.85.86.86,0,0,1-.91.91Z"/><path class="cls-1" d="M104.13,70.8c-4.14,0-7.36-3.09-7.37-7.68,0-4.76,3.42-7.88,7.27-7.89a6.08,6.08,0,0,1,6.42,5.34c0,1.21-.72,2.12-2.38,2.19-.75,0-1.86,0-3.06,0-2.45,0-5.22,0-5.93,0-.33,0-.39.13-.39.59,0,3.55,2.34,5.73,5.47,5.73a5.82,5.82,0,0,0,4.72-2.15.93.93,0,0,1,.65-.3,1,1,0,0,1,1,1C110.51,68.33,108.23,70.8,104.13,70.8Zm-.07-13.94c-3.13,0-5.11,2.8-5.11,4,0,.33.29.33,4.07.33,1.69,0,3.52,0,4.43,0s1.07-.39,1.07-.91C108.52,59.3,107.38,56.86,104.06,56.86Z"/><path class="cls-1" d="M118.49,57.28c-.52,0-.52.07-.52.46,0,1.24-.1,4.59-.1,7s.07,4.27,2.61,4.27a7.54,7.54,0,0,0,.91-.07h.13a.81.81,0,0,1,.78.85c0,.85-.78,1-2.08,1-4.17,0-4.17-3.55-4.17-5,0-2.09.06-6.06.06-7.66v-.52c0-.32-.1-.36-.32-.36h-1.93a.84.84,0,0,1-.91-.88.83.83,0,0,1,.91-.84h1.89c.3,0,.36,0,.36-.33,0-.13,0-1.69,0-2.83v-.82a.95.95,0,1,1,1.89.07c0,.94-.06,3.55-.06,3.55,0,.36.06.36.49.36h2.89a.87.87,0,1,1,0,1.73Z"/><path class="cls-1" d="M133.05,70.76a7.4,7.4,0,0,1-7.66-7.68c0-4.56,3.23-8,7.33-8a7.53,7.53,0,0,1,3.68,1c.07,0,.1.07.17.07s.13-.2.16-.36c0-.39.42-.55.78-.55a.83.83,0,0,1,.94.81v.07c0,.68,0,1.17,0,1.69s0,1,0,1.76v.06a.83.83,0,0,1-.94.82.86.86,0,0,1-.91-.78c0-.69.06-1.08-.33-1.54A4.28,4.28,0,0,0,133,56.79c-3.19,0-5.67,2.54-5.67,6.16,0,3,1.93,6.06,5.67,6a5.12,5.12,0,0,0,4.17-1.89,1,1,0,0,1,1.89.53C139,68.58,136.57,70.76,133.05,70.76Z"/><path class="cls-1" d="M157.64,70.37c-.84,0-1.69-.07-2.54-.07s-1.59,0-2.34.07a.85.85,0,0,1-1-.85.89.89,0,0,1,.94-.91h0c.42,0,.45,0,1,0a.5.5,0,0,0,.52-.55c0-1.08,0-2.31,0-3.52,0-1.69,0-3.22-.07-3.84-.16-2.71-1.89-3.85-3.75-3.85-2.28,0-4.75,1.7-4.85,4.27,0,.62,0,1.6,0,2.77s0,2.64,0,4.17a.49.49,0,0,0,.56.55,9,9,0,0,0,.91,0,.88.88,0,1,1,0,1.76h0c-.85,0-1.73-.07-2.54-.07s-1.63,0-2.38.07a.85.85,0,0,1-1-.85.9.9,0,0,1,.95-.91h0c.42,0,.52,0,1,0a.48.48,0,0,0,.52-.55c0-2.64.07-6.74.07-10.65,0-2.77,0-5.41,0-7.36,0-.85-.26-1.3-1.11-1.34a5.07,5.07,0,0,0-.71,0h0a.9.9,0,0,1-.91-.92c0-.55.26-1,1.66-1a7.54,7.54,0,0,1,.82.06,2.27,2.27,0,0,1,2.21,2.48v1.85c0,2.64,0,5.57,0,6,0,.1,0,.16.07.16s.06,0,.13-.1a6.11,6.11,0,0,1,4.82-2.21,5.16,5.16,0,0,1,5.44,5.21c0,1.37.07,5.11.07,7.68,0,.36.16.59.55.59s.45,0,.91,0h0a.88.88,0,1,1,0,1.76Z"/><path class="cls-1" d="M109.32,26.7l-10.3-7V3.26A3.26,3.26,0,0,0,95.76,0H66a3.26,3.26,0,0,0-3.26,3.26V24.92A3.26,3.26,0,0,0,66,28.18H80l-5.3,5.34a.81.81,0,0,0,.57,1.38.78.78,0,0,0,.57-.24l5-5,5,5a.81.81,0,0,0,1.15,0,.81.81,0,0,0,0-1.14l-5.3-5.34H95.76A3.26,3.26,0,0,0,99,24.92V21.67L108.41,28a.85.85,0,0,0,.45.14.81.81,0,0,0,.46-1.48ZM97.4,18.62l-5.52-3.75A.81.81,0,1,0,91,16.21l6.43,4.36v4.35a1.64,1.64,0,0,1-1.64,1.64H66a1.63,1.63,0,0,1-1.64-1.64V3.26A1.63,1.63,0,0,1,66,1.62H95.76A1.64,1.64,0,0,1,97.4,3.26Z"/></g></g></svg>