<svg xmlns="http://www.w3.org/2000/svg" width="181.9" height="39.8" viewBox="0 0 181.9 39.8"><defs><style>.cls-1{fill:#fff;}</style></defs><title>cc</title><g id="Layer_2" data-name="Layer 2"><g id="Layer_1-2" data-name="Layer 1"><path class="cls-1" d="M90.9,0a19.7,19.7,0,0,1,20,19.9A19.7,19.7,0,0,1,91,39.8,19.9,19.9,0,0,1,90.9,0Zm16.4,19.9A16.2,16.2,0,0,0,91.1,3.6,16.4,16.4,0,0,0,74.7,19.8,16.5,16.5,0,0,0,91,36.2C99.1,36.3,107.5,29.4,107.3,19.9Z"/><path class="cls-1" d="M82,23.1h4.9c0,.1.1.2.1.4a3.5,3.5,0,0,0,3,3.1c1.9.3,3.7,0,4.7-1.8a9.4,9.4,0,0,0,.3-9.3c-.9-1.7-2.7-2.2-4.9-1.8a3.5,3.5,0,0,0-3,3.3h1.2l-3.8,3.7-3.6-3.7h1.2a1.4,1.4,0,0,1,.2-.7c1.2-5.1,5.2-7.7,10.4-6.9a9.8,9.8,0,0,1,8.3,9.3,11.2,11.2,0,0,1-2.4,8.6A10.1,10.1,0,0,1,86.8,30,8.3,8.3,0,0,1,82,23.1Z"/><path class="cls-1" d="M162.1,0a19.9,19.9,0,1,1-20,19.7A20.1,20.1,0,0,1,162.1,0Zm0,36.4a16.5,16.5,0,1,0-16.5-16.5A16.6,16.6,0,0,0,162.1,36.4Z"/><path class="cls-1" d="M165.1,32.7h-6V23.3l-1.9-.2V15.4c.1-1.3.5-1.7,1.8-1.7h6.3c.9,0,1.5.4,1.5,1.2v8.2h-1.7Z"/><path class="cls-1" d="M159.2,9.9a2.9,2.9,0,1,1,2.8,2.9A2.8,2.8,0,0,1,159.2,9.9Z"/><path class="cls-1" d="M20,0A19.6,19.6,0,0,1,39.8,20,19.9,19.9,0,0,1,0,19.9C0,9.8,8.4-.2,20,0ZM36.2,20A16.2,16.2,0,0,0,20.1,3.6c-10-.2-16.5,8.6-16.5,16.2A16.6,16.6,0,0,0,19.8,36.2C27.8,36.2,36.3,29.9,36.2,20Z"/><path class="cls-1" d="M19.7,16.6l-2.5,1.3a14.9,14.9,0,0,0-1.4-1.2,2.3,2.3,0,0,0-3.3,1.2,10.9,10.9,0,0,0,0,3.6,2.1,2.1,0,0,0,1.8,1.9A2.6,2.6,0,0,0,17,22.2l.3-.5,2.3,1.2c-.9,2.3-3.5,3.6-6.4,3.1s-4.4-2.5-4.6-5.5,1.3-5.8,4-6.6A6.1,6.1,0,0,1,19.7,16.6Z"/><path class="cls-1" d="M28.8,21.7l2.4,1.2a5.8,5.8,0,0,1-6.9,3c-2.6-.6-4.2-2.7-4.2-5.8s1.5-5.5,4.2-6.2a5.9,5.9,0,0,1,6.8,2.7l-2.4,1.3a14.9,14.9,0,0,0-1.4-1.2A2.2,2.2,0,0,0,24,18a7.3,7.3,0,0,0-.1,3.3,2.1,2.1,0,0,0,1.9,2.1C27.1,23.6,27.8,23.2,28.8,21.7Z"/></g></g></svg>