<svg width="46" height="46" viewBox="0 0 46 46" fill="none" xmlns="http://www.w3.org/2000/svg">
<circle cx="23" cy="23" r="23" fill="#E3E3E3"/>
<path d="M23.0557 29.955C20.3603 29.955 17.6649 29.955 14.9695 29.955C14.8378 29.955 14.7045 29.955 14.5722 29.9414C13.8974 29.8784 13.6262 29.4238 13.9139 28.8091C14.1636 28.2785 14.436 27.7615 14.7005 27.2365C15.9491 24.7647 17.1976 22.2933 18.4462 19.8223C18.4848 19.7468 18.5251 19.6713 18.5699 19.5993C18.8843 19.0953 19.3951 19.0243 19.7975 19.4591C20.0813 19.7633 20.3213 20.1049 20.5744 20.4347C21.8608 22.1157 23.1472 23.7975 24.4336 25.48C24.9955 26.2121 25.7032 26.2519 26.3633 25.5935C26.6907 25.2666 27.0108 24.9312 27.3422 24.6071C27.9399 24.0226 28.6181 24.0578 29.1061 24.7394C30.0857 26.1071 31.0408 27.493 32.0005 28.8744C32.0755 28.9828 32.133 29.1023 32.1708 29.2286C32.2639 29.5458 32.1322 29.8012 31.8104 29.8858C31.6086 29.9341 31.4015 29.9564 31.1941 29.9522C28.4828 29.9567 25.77 29.9576 23.0557 29.955Z" fill="#282828"/>
<path d="M29.1004 16.4109C29.0998 16.9385 28.9424 17.454 28.6484 17.892C28.3544 18.3301 27.9369 18.671 27.4489 18.8715C26.9609 19.072 26.4244 19.1231 25.9073 19.0183C25.3902 18.9135 24.9159 18.6575 24.5445 18.2829C24.1731 17.9082 23.9213 17.4316 23.821 16.9137C23.7208 16.3957 23.7766 15.8596 23.9813 15.3734C24.1861 14.8872 24.5306 14.4727 24.9713 14.1825C25.4119 13.8924 25.9288 13.7395 26.4563 13.7435C27.1588 13.7524 27.8297 14.037 28.3243 14.536C28.8189 15.035 29.0977 15.7083 29.1004 16.4109Z" fill="#282828"/>
</svg>
