<svg xmlns="http://www.w3.org/2000/svg" width="20.7" height="16.9" viewBox="0 0 20.7 16.9"><defs><style>.cls-1{fill:#fff;}</style></defs><title>twitter</title><g id="Layer_2" data-name="Layer 2"><g id="Layer_1-2" data-name="Layer 1"><path class="cls-1" d="M20.1.5l-2.2.8a.6.6,0,0,1-.7-.2A4.4,4.4,0,0,0,12.3.5a4.4,4.4,0,0,0-2.2,4.4v.3A12.3,12.3,0,0,1,1.3.8,4.5,4.5,0,0,0,2.6,6.5H2.5L.7,6a4.7,4.7,0,0,0,3.4,4.3H2.3a4.3,4.3,0,0,0,3.9,2.9A8.6,8.6,0,0,1,0,15l.3.2a11.8,11.8,0,0,0,5.5,1.7,11.9,11.9,0,0,0,6.6-1.5A12.1,12.1,0,0,0,18.6,4.6a.6.6,0,0,1,.3-.6,10.7,10.7,0,0,0,1.8-1.9l-1.2.3-1.1.3A5.1,5.1,0,0,0,20.1.5Z"/></g></g></svg>