<svg xmlns="http://www.w3.org/2000/svg" width="179.6" height="80.9" viewBox="0 0 179.6 80.9"><defs><style>.cls-1{fill:#fff;}.cls-2{fill:#ff522a;}.cls-3{fill:#0060ff;}.cls-4{fill:#009a2c;}.cls-5{fill:#ffff58;}.cls-6{fill:#ff6525;}.cls-7{fill:#282828;}.cls-8{fill:#00659b;}.cls-9{fill:#ff9a00;}.cls-10{fill:#ce3200;}.cls-11{fill:#003268;}.cls-12{fill:#0096ff;}.cls-13{fill:#006667;}</style></defs><title>logo_pequeño</title><g id="Layer_2" data-name="Layer 2"><g id="Layer_1-2" data-name="Layer 1"><path class="cls-1" d="M115.9,22.4l3.8-9.8h1.1l3.7,9.8h-.9l-1.1-3.1H118l-1.2,3.1Zm2.4-3.9h3.8l-1.9-5.1Z"/><path class="cls-1" d="M126.2,22.4V12.6h.8v9.8Z"/><path class="cls-1" d="M129.5,13.8V12.6h.9v1.2Zm.1,8.6V15.3h.8v7.1Z"/><path class="cls-1" d="M136,18.3h.6l.5-.2c.1,0,.2-.1.2-.3a.6.6,0,0,0,.1-.4,1.2,1.2,0,0,0-.4-1,1.8,1.8,0,0,0-1.4-.4h-.7l-.7.3-.4.5a1.5,1.5,0,0,0-.2.8h-.8a3.1,3.1,0,0,1,.2-1.1,2.3,2.3,0,0,1,.7-.7,1.3,1.3,0,0,1,.9-.4l1-.2h1l.9.4a1.8,1.8,0,0,1,.5.7,3,3,0,0,1,.2,1v3.8a1,1,0,0,0,.2.7h.7v.6h-1.4c-.1-.1-.1-.2-.2-.2s-.1-.2-.1-.4v-.3a2,2,0,0,1-1.2.8,3.2,3.2,0,0,1-1.4.3h-.9l-.8-.4a1,1,0,0,1-.5-.6,2,2,0,0,1-.2-.9c0-1.2.8-1.9,2.5-2.1Zm1.4.4-1.1.2-1,.2a2.4,2.4,0,0,0-1.5.4,1.3,1.3,0,0,0-.5,1.1.7.7,0,0,0,.1.5.8.8,0,0,0,.4.4l.5.2h1.5a2,2,0,0,0,.8-.4c.2-.1.4-.4.6-.6a2.9,2.9,0,0,0,.2-.9Z"/><path class="cls-1" d="M141.5,22.4h-.8V15.3h.8v1l1-.8a2,2,0,0,1,1.3-.4l1.2.3a2,2,0,0,1,.9.7,1.6,1.6,0,0,1,.3.8c0,.3.1.6.1.9v4.6h-.9V17.8a2.2,2.2,0,0,0-.4-1.5,1.8,1.8,0,0,0-1.4-.4h-.7l-.5.3-.5.4-.2.5a2.5,2.5,0,0,0-.2.7v4.5Z"/><path class="cls-1" d="M148,22.4v-.8l4.7-5.6h-4.3v-.7h5.4V16l-4.7,5.7h4.8v.7Z"/><path class="cls-1" d="M158.9,18.3h.6l.5-.2.3-.3v-.4a1.2,1.2,0,0,0-.4-1,1.7,1.7,0,0,0-1.3-.4h-.8l-.6.3-.5.5a1.5,1.5,0,0,0-.2.8h-.8a1.8,1.8,0,0,1,.3-1.1,1.3,1.3,0,0,1,.6-.7,1.3,1.3,0,0,1,.9-.4l1.1-.2h1l.8.4a1.8,1.8,0,0,1,.5.7,1.6,1.6,0,0,1,.2,1v3.8a1,1,0,0,0,.2.7h.7v.6h-1.4a.2.2,0,0,0-.2-.2.8.8,0,0,0-.1-.4v-.3a2,2,0,0,1-1.2.8,3.2,3.2,0,0,1-1.4.3h-.9l-.7-.4c-.3-.1-.4-.3-.6-.6a2,2,0,0,1-.2-.9c0-1.2.9-1.9,2.5-2.1Zm1.4.4-1,.2-1.1.2a2.4,2.4,0,0,0-1.5.4,1.3,1.3,0,0,0-.5,1.1,4.3,4.3,0,0,0,.1.5l.4.4.5.2h1.5a2,2,0,0,0,.8-.4l.6-.6a2.9,2.9,0,0,0,.2-.9Z"/><path class="cls-1" d="M121,33.2v-.8h4.1v5.1h-.8V35.8a3.5,3.5,0,0,1-.5.8l-.8.6-1,.4h-1.3a4.7,4.7,0,0,1-1.7-.3,4.5,4.5,0,0,1-1.4-1,4.2,4.2,0,0,1-.9-1.6,8,8,0,0,1-.3-2.3,6.4,6.4,0,0,1,.3-2,4,4,0,0,1,.8-1.6,4.9,4.9,0,0,1,1.4-1.1,4.5,4.5,0,0,1,2-.4l1.5.2a3.4,3.4,0,0,1,1.2.6,2.6,2.6,0,0,1,.9.9,5.8,5.8,0,0,1,.5,1.4h-.9a3,3,0,0,0-.4-1l-.7-.7-.9-.4-1.1-.2a4.7,4.7,0,0,0-1.7.3,5.2,5.2,0,0,0-1.1,1,5.2,5.2,0,0,0-.7,1.5,11.1,11.1,0,0,0-.2,1.9,4,4,0,0,0,.3,1.5,3.3,3.3,0,0,0,.7,1.3,2.4,2.4,0,0,0,1.1.9,3.3,3.3,0,0,0,1.5.3h.8a1.1,1.1,0,0,0,.8-.3,1.8,1.8,0,0,0,.7-.5,1.6,1.6,0,0,0,.6-.8,3,3,0,0,0,.4-1,3.8,3.8,0,0,1,.1-1Z"/><path class="cls-1" d="M130.4,37.6a2.7,2.7,0,0,1-1.3-.2l-1-.7a2.4,2.4,0,0,1-.7-1.2,3.8,3.8,0,0,1-.3-1.6,5.9,5.9,0,0,1,.2-1.4,6.7,6.7,0,0,1,.6-1.2,3.1,3.1,0,0,1,1.1-.8,2.9,2.9,0,0,1,1.4-.3,3.2,3.2,0,0,1,1.4.3,2.7,2.7,0,0,1,1,.8,2.3,2.3,0,0,1,.6,1.2,3.2,3.2,0,0,1,.2,1.4,4.1,4.1,0,0,1-.2,1.6,2.6,2.6,0,0,1-.7,1.1,2.5,2.5,0,0,1-2.3,1Zm2.4-3.7a3.6,3.6,0,0,0-.2-1.1,3,3,0,0,0-.4-1c-.2-.2-.4-.5-.7-.6a3.1,3.1,0,0,0-2.2,0,2.7,2.7,0,0,0-.8.7l-.4.9a4.5,4.5,0,0,0-.1,1.1,4.1,4.1,0,0,0,.1,1.2,3.1,3.1,0,0,0,.5,1l.7.6,1.1.2,1.1-.2a2.3,2.3,0,0,0,.7-.7,3,3,0,0,0,.4-1A3.6,3.6,0,0,0,132.8,33.9Z"/><path class="cls-1" d="M136.4,37.5h-.8V27.7h.8v3.8a2,2,0,0,1,1.1-.9,2.3,2.3,0,0,1,1.4-.4,3.2,3.2,0,0,1,1.4.3,3.9,3.9,0,0,1,1,.8,6.1,6.1,0,0,1,.5,1.2,3.6,3.6,0,0,1,.2,1.4,7.1,7.1,0,0,1-.1,1.5,4.5,4.5,0,0,1-.6,1.2,3.9,3.9,0,0,1-1,.8l-1.4.2h-.7l-.7-.2-.6-.5a1,1,0,0,1-.5-.6h0Zm0-3.6a4.9,4.9,0,0,0,.1,1.2,1.9,1.9,0,0,0,.5.9,2.3,2.3,0,0,0,.7.7l1.1.2.9-.2.8-.5a1.9,1.9,0,0,0,.5-.9,3.6,3.6,0,0,0,.2-1.1c0-.5-.1-.9-.1-1.3a3.1,3.1,0,0,0-.5-1,2.3,2.3,0,0,0-.7-.7,2.2,2.2,0,0,0-1.1-.2,1.6,1.6,0,0,0-1,.2l-.8.6-.5,1A3.7,3.7,0,0,0,136.4,33.9Z"/><path class="cls-1" d="M144.2,28.9V27.7h.9v1.2Zm0,8.6V30.4h.9v7.1Z"/><path class="cls-1" d="M148,34.1a3.7,3.7,0,0,0,.1,1.1,4.1,4.1,0,0,0,.5.9l.7.6,1,.2a2.1,2.1,0,0,0,1.4-.4,2.5,2.5,0,0,0,.8-1.2h.9l-.4.9-.6.8-.9.5h-1.2l-1.4-.2a3.1,3.1,0,0,1-1.6-2,5.9,5.9,0,0,1-.2-1.4,6.8,6.8,0,0,1,.2-1.5,7.5,7.5,0,0,1,.7-1.2,2.7,2.7,0,0,1,1-.8,2.8,2.8,0,0,1,1.3-.3,2.9,2.9,0,0,1,2.3,1,4.3,4.3,0,0,1,.8,2.9Zm4.6-.7a2.9,2.9,0,0,0-.2-.9,2,2,0,0,0-.4-.8,1.8,1.8,0,0,0-.7-.5,1.6,1.6,0,0,0-1-.2,1.5,1.5,0,0,0-.9.2,1.8,1.8,0,0,0-.7.5,2.2,2.2,0,0,0-.5.8,2.9,2.9,0,0,0-.2.9Z"/><path class="cls-1" d="M156.2,37.5h-.8V30.4h.8v1.3h0a3.5,3.5,0,0,1,.9-1.1,2.3,2.3,0,0,1,1.4-.4v.9l-1.1.2-.7.6a3,3,0,0,0-.4,1,3.7,3.7,0,0,0-.1,1.1Z"/><path class="cls-1" d="M161,37.5h-.8V30.4h.8v1a3.8,3.8,0,0,1,1.1-.8,1.6,1.6,0,0,1,1.2-.4l1.2.2a3.9,3.9,0,0,1,1,.8l.3.8v5.5H165V32.9a2.2,2.2,0,0,0-.4-1.5,2,2,0,0,0-1.4-.4h-.7l-.6.3c-.2.1-.3.3-.4.4l-.3.5a2,2,0,0,0-.1.7,1.5,1.5,0,0,0-.1.7Z"/><path class="cls-1" d="M170.9,37.6a3,3,0,0,1-1.3-.2l-1-.7a3.5,3.5,0,0,1-.7-1.2,3.9,3.9,0,0,1-.2-1.6,3.2,3.2,0,0,1,.2-1.4,2.3,2.3,0,0,1,.6-1.2,2.7,2.7,0,0,1,1-.8,3.2,3.2,0,0,1,1.4-.3,3.7,3.7,0,0,1,1.5.3,3.9,3.9,0,0,1,1,.8,6.7,6.7,0,0,1,.6,1.2,5.9,5.9,0,0,1,.2,1.4,4.1,4.1,0,0,1-.3,1.6,2.4,2.4,0,0,1-.6,1.1,3.9,3.9,0,0,1-1,.8A3.4,3.4,0,0,1,170.9,37.6Zm2.4-3.7a3.7,3.7,0,0,0-.1-1.1,3.1,3.1,0,0,0-.5-1,1.4,1.4,0,0,0-.7-.6,3.1,3.1,0,0,0-2.2,0,2.3,2.3,0,0,0-.7.7,1.8,1.8,0,0,0-.4.9,5.2,5.2,0,0,0-.2,1.1,3.7,3.7,0,0,0,.2,1.2,3,3,0,0,0,.4,1l.8.6,1,.2,1.1-.2a1.6,1.6,0,0,0,.7-.7,3.1,3.1,0,0,0,.5-1A3.7,3.7,0,0,0,173.3,33.9Z"/><path class="cls-1" d="M115.9,52.5l3.8-9.7h1.1l3.7,9.7h-.9l-1.1-3H118l-1.2,3Zm2.4-3.8h3.8l-1.9-5.1Z"/><path class="cls-1" d="M127,52.5h-.8V42.8h.8v3.8a2,2,0,0,1,1.1-.9,2.3,2.3,0,0,1,1.4-.4,3.2,3.2,0,0,1,1.4.3,3.9,3.9,0,0,1,1,.8,6.1,6.1,0,0,1,.5,1.2,3.6,3.6,0,0,1,.2,1.4,7.1,7.1,0,0,1-.1,1.5,6.7,6.7,0,0,1-.6,1.2,2.3,2.3,0,0,1-1,.7,3.2,3.2,0,0,1-1.4.3h-.7l-.7-.2-.6-.5-.5-.6h0Zm0-3.5a4.9,4.9,0,0,0,.1,1.2,1.9,1.9,0,0,0,.5.9,2.3,2.3,0,0,0,.7.7l1.1.2.9-.2.8-.5a2.6,2.6,0,0,0,.5-.9,3.7,3.7,0,0,0,.2-1.2c0-.4-.1-.8-.1-1.2a3.1,3.1,0,0,0-.5-1,2.3,2.3,0,0,0-.7-.7,2.2,2.2,0,0,0-1.1-.2,1.6,1.6,0,0,0-1,.2,2.4,2.4,0,0,0-.8.6l-.5,1A3.7,3.7,0,0,0,127,49Z"/><path class="cls-1" d="M134.8,44V42.8h.9V44Zm0,8.5v-7h.8v7Z"/><path class="cls-1" d="M138.6,49.2a3.7,3.7,0,0,0,.1,1.1,4.1,4.1,0,0,0,.5.9l.7.6,1,.2a2.1,2.1,0,0,0,1.4-.4,2.5,2.5,0,0,0,.8-1.2h.9l-.4.9-.6.8-.9.5h-1.2a3.2,3.2,0,0,1-1.4-.3,1.8,1.8,0,0,1-1-.7,3.4,3.4,0,0,1-.6-1.2,5.9,5.9,0,0,1-.2-1.4,6.8,6.8,0,0,1,.2-1.5,4.7,4.7,0,0,1,.7-1.2,2.7,2.7,0,0,1,1-.8,2.8,2.8,0,0,1,1.3-.3,2.9,2.9,0,0,1,2.3,1,4.2,4.2,0,0,1,.8,2.9Zm4.6-.7a2.9,2.9,0,0,0-.2-.9,2,2,0,0,0-.4-.8l-.7-.6h-1a1.5,1.5,0,0,0-.9.2,1.8,1.8,0,0,0-.7.5,2.2,2.2,0,0,0-.5.8,2.9,2.9,0,0,0-.2.9Z"/><path class="cls-1" d="M146.8,52.5H146v-7h.8v1.3h0a3.5,3.5,0,0,1,.9-1.1,2.1,2.1,0,0,1,1.4-.4v.9l-1.1.2-.7.6a3,3,0,0,0-.4,1,3.7,3.7,0,0,0-.1,1.1Z"/><path class="cls-1" d="M153.3,52.6h-.9a1.5,1.5,0,0,1-1-.3,1.4,1.4,0,0,1-.3-1.1V46.2h-1v-.7h1V43.6h.8v1.9h1.3v.7h-1.3v5.3c0,.1.1.2.1.3h1.3Z"/><path class="cls-1" d="M157.7,52.7l-1.2-.2a4.1,4.1,0,0,1-1.1-.7,3.5,3.5,0,0,1-.7-1.2,7,7,0,0,1-.2-1.6,3.2,3.2,0,0,1,.2-1.4,2.3,2.3,0,0,1,.6-1.2,3.9,3.9,0,0,1,1-.8,3.2,3.2,0,0,1,1.4-.3,3.3,3.3,0,0,1,1.5.3,3.9,3.9,0,0,1,1,.8,2.3,2.3,0,0,1,.6,1.2A5.9,5.9,0,0,1,161,49a6.1,6.1,0,0,1-.2,1.5,3.5,3.5,0,0,1-.7,1.2,3.9,3.9,0,0,1-1,.8Zm2.4-3.7a3.7,3.7,0,0,0-.1-1.1,3,3,0,0,0-.4-1,1.6,1.6,0,0,0-.8-.6,1.8,1.8,0,0,0-1.1-.2,2,2,0,0,0-1.1.2,2.3,2.3,0,0,0-.7.7,2.5,2.5,0,0,0-.4.9,4.3,4.3,0,0,0-.2,1.1,3.7,3.7,0,0,0,.2,1.2,3.1,3.1,0,0,0,.5,1l.7.6,1,.2a1.8,1.8,0,0,0,1.1-.3,1.6,1.6,0,0,0,.8-.6,3,3,0,0,0,.4-1A3.7,3.7,0,0,0,160.1,49Z"/><path class="cls-1" d="M117.7,58.9a4.1,4.1,0,0,1,3-1.2,3.8,3.8,0,0,1,3.5,1.6,2.7,2.7,0,0,1,.7,1.8h-2a3,3,0,0,0-.5-1,1.9,1.9,0,0,0-1.7-.7,2,2,0,0,0-1.7.9,4.8,4.8,0,0,0-.6,2.6,3.3,3.3,0,0,0,.7,2.4,1.8,1.8,0,0,0,1.6.8,1.9,1.9,0,0,0,1.7-.7,3.8,3.8,0,0,0,.5-1.1h2a4.2,4.2,0,0,1-1.4,2.6,3.6,3.6,0,0,1-2.7,1,4.2,4.2,0,0,1-3.3-1.3,5.8,5.8,0,0,1-1.2-3.8A5.3,5.3,0,0,1,117.7,58.9Z"/><path class="cls-1" d="M132.8,66.8a3.8,3.8,0,0,1-2.8,1.1,3.5,3.5,0,0,1-2.8-1.1,4.5,4.5,0,0,1-.9-2.8,4.4,4.4,0,0,1,.9-2.7,3.5,3.5,0,0,1,2.8-1.1,3.8,3.8,0,0,1,2.8,1.1,4.4,4.4,0,0,1,.9,2.7A4.5,4.5,0,0,1,132.8,66.8Zm-1.6-1.1a2.6,2.6,0,0,0,.5-1.7,2.5,2.5,0,0,0-.5-1.6,1.4,1.4,0,0,0-1.2-.6,1.5,1.5,0,0,0-1.3.6,2.5,2.5,0,0,0-.5,1.6,2.6,2.6,0,0,0,.5,1.7,1.5,1.5,0,0,0,1.3.6A1.4,1.4,0,0,0,131.2,65.7Z"/><path class="cls-1" d="M137.3,67.6h-1.9V57.9h1.9Z"/><path class="cls-1" d="M145.5,66.8a3.5,3.5,0,0,1-2.8,1.1,3.8,3.8,0,0,1-2.8-1.1A4.5,4.5,0,0,1,139,64a4.4,4.4,0,0,1,.9-2.7,3.8,3.8,0,0,1,2.8-1.1,3.5,3.5,0,0,1,2.8,1.1,4.4,4.4,0,0,1,.9,2.7A4.5,4.5,0,0,1,145.5,66.8ZM144,65.7a2.7,2.7,0,0,0,.4-1.7,2.5,2.5,0,0,0-.4-1.6,1.5,1.5,0,0,0-1.3-.6,1.6,1.6,0,0,0-1.3.6A2.5,2.5,0,0,0,141,64a2.7,2.7,0,0,0,.4,1.7,1.6,1.6,0,0,0,1.3.6A1.5,1.5,0,0,0,144,65.7Z"/><path class="cls-1" d="M157.1,60.4l.9.7a1.9,1.9,0,0,1,.4.9c0,.3.1.6.1,1.1v4.5h-1.9V63c0-.2,0-.5-.1-.6s-.5-.5-1-.5a1,1,0,0,0-1,.6,1.9,1.9,0,0,0-.2.8v4.3h-1.9V63.3a2.2,2.2,0,0,0-.1-.9c-.2-.4-.5-.5-1-.5s-.9.1-1,.5-.2.5-.2.9v4.3h-1.9V60.4h1.8v1.1a3,3,0,0,1,.7-.8,2,2,0,0,1,1.4-.5,2.2,2.2,0,0,1,1.3.4,2.2,2.2,0,0,1,.7.9,2.2,2.2,0,0,1,.9-1,2.8,2.8,0,0,1,1.3-.3Z"/><path class="cls-1" d="M166.7,61.3a4.2,4.2,0,0,1,.8,2.6,4.7,4.7,0,0,1-.8,2.8,2.4,2.4,0,0,1-2.2,1.1,3.3,3.3,0,0,1-1.5-.3l-.7-.8v.9h-1.8V57.9h1.9v3.4a2.7,2.7,0,0,1,.8-.7,2.2,2.2,0,0,1,1.3-.4A2.7,2.7,0,0,1,166.7,61.3Zm-1.6,4.4a2.5,2.5,0,0,0,.4-1.6,2.2,2.2,0,0,0-.2-1.2,1.3,1.3,0,0,0-1.4-1,1.4,1.4,0,0,0-1.4.9,5.1,5.1,0,0,0-.2,1.3,2.7,2.7,0,0,0,.4,1.6,1.5,1.5,0,0,0,1.3.6A1.1,1.1,0,0,0,165.1,65.7Z"/><path class="cls-1" d="M171.1,59.5h-1.9V57.8h1.9Zm-1.9.9h1.9v7.2h-1.9Z"/><path class="cls-1" d="M176.1,63.2h.8a.5.5,0,0,0,.4-.6.6.6,0,0,0-.3-.6h-.9a1.3,1.3,0,0,0-1,.3,3.3,3.3,0,0,0-.3.6H173a2.5,2.5,0,0,1,.6-1.5,3.1,3.1,0,0,1,2.5-1,5.4,5.4,0,0,1,2.2.5,1.8,1.8,0,0,1,.9,1.8v4.1a1.2,1.2,0,0,0,.1.5l.3.3v.2h-2.1c0-.1-.1-.2-.1-.4v-.4l-.9.7a3.7,3.7,0,0,1-1.4.4,2.5,2.5,0,0,1-1.7-.6,2.1,2.1,0,0,1-.6-1.6,2,2,0,0,1,1-1.9,5.8,5.8,0,0,1,1.7-.5Zm1.2.9-.4.2H176l-.9.3c-.3.1-.4.4-.4.8a.9.9,0,0,0,.3.7l.6.2a1.9,1.9,0,0,0,1.2-.4,1.4,1.4,0,0,0,.5-1.3Z"/><rect class="cls-2" x="48.2" y="-48.2" width="3.2" height="99.73" transform="translate(51.5 -48.2) rotate(90)"/><rect class="cls-1" x="48.2" y="-45" width="3.2" height="99.73" transform="translate(54.7 -45) rotate(90)"/><rect class="cls-3" x="48.2" y="-41.8" width="3.2" height="99.73" transform="translate(58 -41.8) rotate(90)"/><rect class="cls-4" x="48.2" y="-38.5" width="3.2" height="99.73" transform="translate(61.2 -38.5) rotate(90)"/><rect class="cls-5" x="48.2" y="-35.3" width="3.2" height="99.73" transform="translate(64.4 -35.3) rotate(90)"/><rect class="cls-6" x="48.2" y="-32.1" width="3.2" height="99.73" transform="translate(67.7 -32.1) rotate(90)"/><rect class="cls-7" x="48.2" y="-28.8" width="3.2" height="99.73" transform="translate(70.9 -28.8) rotate(90)"/><rect class="cls-4" x="48.2" y="-25.6" width="3.2" height="99.73" transform="translate(74.1 -25.6) rotate(90)"/><rect class="cls-2" x="48.2" y="-22.4" width="3.2" height="99.73" transform="translate(77.4 -22.4) rotate(90)"/><rect class="cls-1" x="48.2" y="-19.1" width="3.2" height="99.73" transform="translate(80.6 -19.1) rotate(90)"/><rect class="cls-8" x="48.2" y="-15.9" width="3.2" height="99.73" transform="translate(83.8 -15.9) rotate(90)"/><rect class="cls-5" x="48.2" y="-12.7" width="3.2" height="99.73" transform="translate(87.1 -12.7) rotate(90)"/><rect class="cls-7" x="48.2" y="-9.4" width="3.2" height="99.73" transform="translate(90.3 -9.4) rotate(90)"/><rect class="cls-9" x="48.2" y="-6.2" width="3.2" height="99.73" transform="translate(93.6 -6.2) rotate(90)"/><rect class="cls-1" x="48.2" y="-2.9" width="3.2" height="99.73" transform="translate(96.8 -2.9) rotate(90)"/><rect class="cls-10" x="48.2" y="0.3" width="3.2" height="99.73" transform="translate(100 0.3) rotate(90)"/><rect class="cls-11" x="48.2" y="3.5" width="3.2" height="99.73" transform="translate(103.3 3.5) rotate(90)"/><rect class="cls-4" x="48.2" y="6.8" width="3.2" height="99.73" transform="translate(106.5 6.8) rotate(90)"/><rect class="cls-5" x="48.2" y="10" width="3.2" height="99.73" transform="translate(109.7 10) rotate(90)"/><rect class="cls-8" x="48.2" y="13.2" width="3.2" height="99.73" transform="translate(113 13.2) rotate(90)"/><rect class="cls-2" x="48.2" y="16.5" width="3.2" height="99.73" transform="translate(116.2 16.5) rotate(90)"/><rect class="cls-12" x="48.2" y="19.7" width="3.2" height="99.73" transform="translate(119.4 19.7) rotate(90)"/><rect class="cls-9" x="48.2" y="22.9" width="3.2" height="99.73" transform="translate(122.7 22.9) rotate(90)"/><rect class="cls-1" x="48.2" y="26.2" width="3.2" height="99.73" transform="translate(125.9 26.2) rotate(90)"/><rect class="cls-13" x="48.2" y="29.4" width="3.2" height="99.73" transform="translate(129.1 29.4) rotate(90)"/></g></g></svg>