<svg xmlns="http://www.w3.org/2000/svg" xmlns:xlink="http://www.w3.org/1999/xlink" version="1.1" id="Capa_1" x="0px" y="0px" width="217.344px" height="23.161px" viewBox="0 0 217.344 23.161" enable-background="new 0 0 217.344 23.161" xml:space="preserve"><g><g><g><path fill="#005294" d="M136.97,17.945c-2.167,0-3.917-2.021-3.917-4.485c0-2.479,1.75-4.49,3.917-4.49c2.173,0,3.938,2.012,3.938,4.49C140.908,15.924,139.143,17.945,136.97,17.945L136.97,17.945z M136.97,5.417c-4.554,0-8.247,3.608-8.247,8.042c0,4.431,3.693,8.041,8.247,8.041c4.536,0,8.234-3.61,8.234-8.041C145.204,9.025,141.506,5.417,136.97,5.417L136.97,5.417z M170.508,17.945c-2.16,0-3.914-2.021-3.914-4.485c0-2.479,1.754-4.49,3.914-4.49c2.174,0,3.951,2.012,3.951,4.49C174.459,15.924,172.682,17.945,170.508,17.945L170.508,17.945z M170.508,5.417c-4.547,0-8.243,3.608-8.243,8.042c0,4.431,3.696,8.041,8.243,8.041c4.549,0,8.248-3.61,8.248-8.041C178.756,9.025,175.057,5.417,170.508,5.417L170.508,5.417z M118.735,8.969c1.048,0,2.468,0.382,3.307,1.478l0.183,0.235l2.604-1.95l-0.178-0.246c-1.533-1.947-3.807-3.07-6.235-3.07c-4.35,0-7.891,3.608-7.891,8.042c0,4.431,3.541,8.041,7.891,8.041c2.409,0,4.726-1.16,6.197-3.082l0.183-0.236l-2.6-1.971l-0.172,0.275c-0.662,1.074-2.184,1.458-3.288,1.458c-2.179,0-3.887-1.969-3.887-4.485C114.849,10.938,116.557,8.969,118.735,8.969L118.735,8.969z M189.178,5.64c-0.072,0.028,0.239-0.056,0.239-0.056c0.538-0.127,0.958-0.156,1.392-0.167c0.249-0.007,0.492,0,0.703,0.011c3.725,0.278,6.28,3.223,6.28,7.369v8.389h-4.136v-8.294c0-2.66-1.646-3.84-3.273-3.84c-1.697,0-3.6,1.376-3.6,3.215v8.919h-4.135V5.731l0.548,0.367c0.663,0.391,1.431,0.615,2.253,0.615c0.665,0,1.445-0.168,2.016-0.43C187.465,6.283,188.709,5.768,189.178,5.64L189.178,5.64z M209.574,17.945c-1.965,0-3.561-2.021-3.561-4.485c0-2.479,1.596-4.49,3.561-4.49c1.986,0,3.602,2.012,3.602,4.49C213.176,15.924,211.561,17.945,209.574,17.945L209.574,17.945z M216.799,6.098c-0.664,0.391-1.439,0.615-2.26,0.615c-0.67,0-1.451-0.168-2.014-0.43c0,0-0.11-0.058-0.264-0.122c-0.129-0.055-0.793-0.337-0.998-0.421c-0.031-0.003-0.326-0.085-0.414-0.116c0,0-0.805-0.174-1.23-0.196c-0.127-0.009-0.254-0.011-0.379-0.011h-0.076c-4.123,0-7.479,3.608-7.479,8.042c0.064,4.517,3.348,8.041,7.479,8.041c1.037,0,2.029-0.242,2.944-0.673l0.558-0.293c0.553-0.237,1.163-0.377,1.801-0.377c1.089,0,2.096,0.377,2.875,1.034l0.002-15.461L216.799,6.098L216.799,6.098z M153.233,12.266c0-1.274,0.922-2.361,2.13-2.566c0.139-0.03,1.934-0.338,3.006,1.046V5.52c0,0-0.639-0.103-1.318-0.103c-0.98-0.007-1.974,0.238-2.889,0.681l-0.384,0.197c-0.562,0.276-1.201,0.418-1.87,0.418c-0.842,0-1.611-0.224-2.276-0.623l-0.535-0.36v15.454h4.137V12.266L153.233,12.266z"/><path fill="#005294" d="M77.776,4.159c-0.458,0-2.634,0.812-3.146,3.003c-0.22,0.938,0.52,1.495,1.5,1.154c1.372-0.47,2.447-2.729,2.198-3.81C78.152,4.39,78.152,4.159,77.776,4.159L77.776,4.159z M91.088,3.467c-0.51,0.107-0.319,0.951-2.541,2.483c-1.211,0.838-1.589,0.634-2.801,1.356c0,0.491,0.461,0.578,0.635,0.664c0.577-0.23,2.646-0.947,3.205-1.242c0.361-0.188,2.736-1.396,2.803-2.02c0.046-0.432,0-0.692-0.06-0.751C92.012,3.551,91.54,3.368,91.088,3.467L91.088,3.467z M97.986,12.303c-0.033-0.635-0.408-1.316-1.096-1.387c-1.097-0.115-3.949,3.557-5.066,4.967c-0.162,0.024-0.238,0.449-0.994,0.953c-0.318,0.479-0.725,0.722-1.357,1.56c-0.291,0.229-0.781,0.837-0.781,1.097c0,0.203,0.086,0.262,0.316,0.262c0.287,0,0.666-0.492,1.299-0.781c0.744-0.639,1.181-0.824,1.51-1.114c0.085-0.075,0.175-0.166,0.252-0.265c0.193-0.176,1.205-1.195,1.56-1.711c0.114-0.201,0.503-0.709,0.989-0.709c0.088,0,0.049,0.246,0.049,0.334c0,0.201-0.488,2.193-0.808,3.061c-0.132,0.352-0.437,1.502-0.437,1.789c0,0.518,0.154,1.154,0.722,1.244c0.497,0.077,0.813-0.122,1.184-0.465c0.523-0.474,1.402-1.52,2.562-3.033c0.631-0.82,1.93-1.936,2.436-1.816c0.753,0.174,1.215,3.146,3.033,3.178c0.778,0.01,1.646-0.636,2.601-1.879c0.495-1.023,0.292-1.934,0.712-2.754c-0.869,0.484-1.467,2.035-2.131,2.035c-0.897,0-1.084-1.465-1.357-2.11c-0.594-1.413-1.385-1.417-1.76-1.417c-0.895,0-2.924,1.928-4.42,3.755c-0.325,0.448-0.422,0.511-0.403,0.202C96.636,16.752,98.037,13.266,97.986,12.303L97.986,12.303z M44.293,12.417c-0.635,1.214-4.162,6.466-4.418,5.373c-0.317-1.369,4.158-6.353,4.418-6.353C44.293,11.437,45.197,10.804,44.293,12.417L44.293,12.417z M84.014,17.991c0-1.213,0.811-2.511,0.95-2.54c0.758-0.165,0.868-1.589,2.372-1.589c0.719,0,0.871,0.521,0.921,1.154c0.091,1.1-2.188,3.768-3.464,3.813C83.99,18.858,84.014,18.512,84.014,17.991L84.014,17.991z M71.707,17.848c0.651-0.512,1.295-1.085,1.855-1.734c0.434-0.502,0.697,0.742,1.067,1.357c0.44,0.893,1.486,2.17,2.427,2.193c0.673,0.02,2.354-1.208,3.244-1.99c0.529-0.434,1.145-0.951,1.375-1.068c0,0.463-0.203,0.489-0.203,1.299c0,0.346-0.06,0.434-0.06,0.78c0,0.548,0.354,1.183,1.009,1.532c0.949,0.498,2.455,0.43,3.179,0.115c1.299-0.572,5.653-3.388,4.793-7.25c-0.164-0.733-0.72-1.821-2.339-1.821c-0.548,0-0.98,0.407-1.415,0.434c0.084-0.393,0.348-0.664,0.348-0.778c0-0.173-0.261-0.346-1.156-0.346c-0.259,0-1.385,1.271-2.164,1.934c-0.438,0.371-2.758,2.654-3.609,3.457v-0.05c-0.776,0.704-1.82,1.272-2.167,1.272c-0.806,0-0.917-0.629-1.069-1.357c-0.175-0.82-0.128-2.137-0.37-2.543c-0.445-0.744-0.957-0.81-1.709-0.81c-0.377,0-1.953,2.194-2.168,2.458c-0.323,0.387-0.532,0.597-0.91,1.009c-0.257,0.241-0.552,0.497-0.893,0.771c-1.566,1.326-2.335,1.623-2.858,1.828c-0.872,0.338-2.534,0.213-2.751-0.924c-0.043-0.234,0.033-1.066,0.262-1.416c0.811-1.268,2.048-1.702,3.062-2.655c1.183-0.626,2.397-1.589,2.397-1.963c0.104-0.364-0.041-1.335-0.434-1.357c-1.009-0.062-1.863,0.613-2.717,1.212c-0.408,0.29-2.362,1.593-2.686,1.877c-0.786,0.695-2.642,2.216-3.327,2.871c-0.384,0.295-0.933,0.71-1.288,0.71c-0.663,0-1.04-0.665-1.04-1.271c0-0.548,0.084-2.282-0.433-2.282c-0.203,0-0.486,0.004-0.954,0.117c-0.556,0.135-4.093,3.837-4.882,3.871c-0.483,0.018,1.072-1.729,1.754-2.476c1.393-1.525,3.318-3.417,3.819-3.765c0.646-0.444,1.13-0.779,1.214-1.442c-0.289-0.262-0.345-0.635-0.924-0.635c-0.981,0-1.729,0.834-2.711,1.443c-0.383,0.236-2.592,2.149-3.091,2.656c-0.532,0.54-2.053,2.138-2.601,2.484c-0.155,0.091-0.268,0.187-0.35,0.306c-0.93,0.457-2.533,1.406-3.344-0.652c-0.377-0.867-0.23-1.908-0.377-2.253c0-0.982,0.147-1.301,0.202-1.792c0.376-1.097,1.197-3.132,1.423-3.691c0.319-0.79,1.963-5.208,1.987-5.808c0.193-0.849,0.138-1.546-0.637-1.53c-0.857,0.019-1.602,1.233-1.793,1.993c-0.631,2.488-2.458,6.813-3.057,6.959c-0.951,0.23-2.292,1.618-2.929,2.224c-1.503,1.428-3.055,3.274-3.463,3.708c-0.183,0.191-0.383,0.418-0.6,0.627v-0.031c-0.106,0.117-0.252,0.255-0.42,0.398c-0.081,0.062-0.163,0.116-0.248,0.162c-0.042,0.028-0.076,0.068-0.109,0.116c-0.404,0.292-0.864,0.538-1.234,0.538c-0.897,0-0.924-1.563-1.359-2.11c-0.514-1.383-1.386-1.417-1.76-1.417c-0.898,0-1.417,0.752-1.793,0.955c-0.905,1.023-1.472,1.271-2.627,2.8c-0.292,0.392-0.403,0.262-0.403,0.202c-0.142-0.87,1.535-3.755,1.385-4.994c-0.074-0.633-0.409-1.474-1.096-1.387c-1.516,0.189-3.498,3.684-5.02,5.016H22.96l-0.014,0.014c-0.042,0.035-0.083,0.07-0.124,0.105c-0.009,0.002-0.016,0.021-0.023,0.049c-0.326,0.336-0.836,0.794-1.298,0.794c-1.041,0-0.96-1.126-1.076-1.414c0-1.936-0.231-2.14-1.04-2.14c-0.606,0-0.693,0.176-1.445,1.213c-1.471,2.341-2.996,3.848-3.461,3.871c-0.469-0.014-0.49-0.516-0.566-0.943c-0.341-1.952,1.517-5.439,1.517-6.104c0-0.375-0.087-0.633-0.548-0.633c-0.432,0-0.926,0.345-1.271,0.578c-0.61,0.506-2.945,4.244-3.639,4.676c-0.145,0.087-0.434,0.522-0.434,0.87c0,1.152,0.029,1.239,0.087,1.239c0.116,0,0.29-0.058,0.606-0.491c0.115-0.145,1.098-0.953,1.242-0.953c0.085,0,0.085,0.086,0.085,0.406c0,0.951,0.174,1.471,0.233,2.281c0.182,1.161,1.75,1.402,2.652,1.152c2.051-0.568,3.268-3.608,3.439-3.608c0.462,0,0.176,2.3,2.225,2.222c1.221-0.043,2.09-0.748,2.502-0.977l0.002-0.006c2.074-1.32,2.514-3.229,2.975-2.77c0.163,0.161,0.145,0.411-0.057,1.066c-0.354,1.143-0.897,3.334-1.014,3.928c-0.147,0.739,0.145,1.244,0.721,1.244c0.232,0,0.787-0.082,1.186-0.465c0.459-0.441,1.586-1.707,2.543-2.943c0.72-0.934,1.848-2.081,2.453-1.906c0.963,0.278,1.676,3.178,3.035,3.178c0.777,0,1.645-0.636,2.597-1.879v-0.009c0.072-0.061,0.167-0.106,0.282-0.106c0.118,0,0.174,0.029,0.174,0.087c0,0.144-0.598,1.067-0.576,2.196c0.021,1.078,1.039,1.154,1.386,1.154c1.299,0,3.095-2.137,3.477-2.592c0.743-0.895,2.097-3.068,2.386-3.068c0.375,0,1.182,3.301,3.062,3.639c1.068,0.191,2.639-0.547,3.169-1.224c0.064-0.024,0.109-0.03,0.109,0.008c0,0.143-0.76,1.802-0.25,2.399c0.464,0.545,1.451,0.486,1.908,0.262c0.814-0.408,3.837-2.824,4.705-3.871c0.405,0,0.634,2.664,1.906,2.83c1.124,0.105,1.616-0.232,2.455-0.809c0.151-0.18,0.328-0.299,0.473-0.408c0.004,0,0.008,0,0.016,0c0.023,0,0.066-0.044,0.123-0.112c0.046-0.044,0.084-0.089,0.108-0.136c0.126-0.155,0.276-0.326,0.405-0.326c0.173,0,0.115,0.896,0.26,1.068c0,1.473,0.882,1.752,1.263,1.934c0.612,0.287,1.192,0.406,2.228,0.406c1.185-0.057,2.524-0.758,3.45-1.424C70.349,18.92,71.117,18.465,71.707,17.848L71.707,17.848z M11.523,10.05c0-0.461-0.811-0.808-2.051-0.808c-1.012,0.055-4.141,0.706-5.342,1.098c0.156-2.994,1.267-5.606,1.528-6.123c0.267-0.533,0.868-0.951,1.417-0.951c0.636-0.148,1.24-0.148,1.704-0.148c0.923,0,1.152,0.06,2.048,0.379c0.41,0.145,0.695-1.042,0.695-2.255C11.523,0.117,11.119,0,10.165,0C9.877,0,7.496,0.14,6.988,0.204C6.086,0.312,5.805,0.571,5.085,0.955C4.144,1.451,2.685,3.727,2.6,4.016C2.369,4.739,2.097,5.98,2.051,6.526C1.969,7.48,1.56,9.182,1.56,10.597C1.56,11.61,0,11.956,0,12.996c0,0.115,0.058,0.201,0.261,0.201c0.375,0,0.722-0.175,0.866-0.175c0.086,0,0.145,0.029,0.145,0.117c0,0.289-0.089,0.636-0.089,0.982c0,0.203-0.112,2.139-0.112,2.686c0,0.316-0.117,1.3-0.117,2.051c0,0.201,0,1.151,0,1.618c0.088,2.425,0.287,2.6,1.243,2.685c0.399-0.025,0.702-0.569,0.721-0.809c0-0.838,0.073-1.64,0.073-2.624c0-0.167,0.137-1.816,0.187-2.228c0.083-0.696,0.03-1.705,0.232-2.369c0.028-0.951,0.087-1.615,0.29-2.223c0.113-0.318,0.632-0.503,1.27-0.52c0.507-0.015,3.406-0.599,3.752-0.606c0.797-0.015,1.297,0.313,2.283,0.432C11.519,12.279,11.523,10.396,11.523,10.05L11.523,10.05z"/></g></g></g></svg>