<svg xmlns="http://www.w3.org/2000/svg" width="279.5" height="268" viewBox="0 0 279.5 268"><defs><style>.cls-1{fill:#fff;}.cls-2{fill:#ff522a;}.cls-3{fill:#0060ff;}.cls-4{fill:#009a2c;}.cls-5{fill:#ffff58;}.cls-6{fill:#ff6525;}.cls-7{fill:#282828;}.cls-8{fill:#00659b;}.cls-9{fill:#ff9a00;}.cls-10{fill:#ce3200;}.cls-11{fill:#003268;}.cls-12{fill:#0096ff;}.cls-13{fill:#006667;}</style></defs><title>logo_grande</title><g id="Layer_2" data-name="Layer 2"><g id="Layer_1-2" data-name="Layer 1"><path class="cls-1" d="M68.5,74.1,81.2,41.7h3.5L97.1,74.1H94L90.2,63.9H75.5L71.6,74.1Zm8-12.8H89.2l-6.4-17Z"/><path class="cls-1" d="M102.6,74.1V41.7h2.7V74.1Z"/><path class="cls-1" d="M113.6,45.7v-4h2.9v4Zm.1,28.4V50.8h2.7V74.1Z"/><path class="cls-1" d="M135.1,60.5l1.9-.3a6.9,6.9,0,0,0,1.7-.5,1.6,1.6,0,0,0,.8-1,7.8,7.8,0,0,0,.2-1.4,4.6,4.6,0,0,0-1.4-3.4c-.8-.9-2.3-1.3-4.4-1.3a10.6,10.6,0,0,0-2.6.2,5.3,5.3,0,0,0-2,.9,4.6,4.6,0,0,0-1.5,1.6,6.1,6.1,0,0,0-.7,2.5h-2.8a7.6,7.6,0,0,1,1-3.5,6.1,6.1,0,0,1,2.1-2.4,7,7,0,0,1,2.9-1.3,14.9,14.9,0,0,1,3.6-.5,16.6,16.6,0,0,1,3.3.4,8.5,8.5,0,0,1,2.7,1.2,5.2,5.2,0,0,1,1.8,2.3,6.9,6.9,0,0,1,.7,3.4V70.1a3,3,0,0,0,.5,2,3.2,3.2,0,0,0,2.3-.2V74l-.9.2a2.5,2.5,0,0,1-1.2.2h-1.2l-1.1-.4-.7-.8-.3-1.1c0-.4-.1-.8-.1-1.2a11.3,11.3,0,0,1-8.7,3.9,9.2,9.2,0,0,1-2.9-.4,6.6,6.6,0,0,1-2.5-1.3,5.1,5.1,0,0,1-1.7-2.1,6.5,6.5,0,0,1-.6-2.9c0-4,2.7-6.3,8.1-7Zm4.6,1.3a15.4,15.4,0,0,1-3.5,1l-3.5.3a9.8,9.8,0,0,0-4.8,1.4,4,4,0,0,0-1.8,3.6,3.5,3.5,0,0,0,.5,1.8,3,3,0,0,0,1.1,1.4,3.9,3.9,0,0,0,1.6.7,5.8,5.8,0,0,0,1.9.3,15.5,15.5,0,0,0,3.1-.4,8.4,8.4,0,0,0,2.7-1.3,5.8,5.8,0,0,0,2-2.1,7,7,0,0,0,.7-3Z"/><path class="cls-1" d="M153.3,74.1h-2.7V50.8h2.7V54a16.9,16.9,0,0,1,3.3-2.8,8.2,8.2,0,0,1,4.2-1.1,10.6,10.6,0,0,1,4,.8,6.4,6.4,0,0,1,3.1,2.6,5.3,5.3,0,0,1,1,2.5,26.4,26.4,0,0,1,.2,2.8V74.1h-2.7V58.9a7.4,7.4,0,0,0-1.4-4.8c-1-1-2.5-1.5-4.7-1.5a8.5,8.5,0,0,0-2.3.3,5.4,5.4,0,0,0-1.8,1.1,4.7,4.7,0,0,0-1.4,1.4,5.6,5.6,0,0,0-.9,1.7,6.3,6.3,0,0,0-.5,2.2,15.5,15.5,0,0,0-.1,2.2Z"/><path class="cls-1" d="M175,74.1V71.7L190.4,53H176V50.8h17.9v2.3L178.4,71.8h16.1v2.3Z"/><path class="cls-1" d="M211,60.5l1.9-.3a5.8,5.8,0,0,0,1.7-.5,1.3,1.3,0,0,0,.8-1,7.8,7.8,0,0,0,.2-1.4,4.9,4.9,0,0,0-1.3-3.4c-.9-.9-2.4-1.3-4.5-1.3a11,11,0,0,0-2.6.2,6.1,6.1,0,0,0-2,.9,4.6,4.6,0,0,0-1.5,1.6,8.2,8.2,0,0,0-.7,2.5h-2.8a9,9,0,0,1,1-3.5,6.1,6.1,0,0,1,2.1-2.4,6.9,6.9,0,0,1,3-1.3,13.4,13.4,0,0,1,3.5-.5,16.6,16.6,0,0,1,3.3.4,8.5,8.5,0,0,1,2.7,1.2,5.2,5.2,0,0,1,1.8,2.3,6.9,6.9,0,0,1,.7,3.4V70.1a2.5,2.5,0,0,0,.6,2,3,3,0,0,0,2.2-.2V74l-.9.2a2.5,2.5,0,0,1-1.2.2h-1.2l-1.1-.4a2.1,2.1,0,0,1-.6-.8,4.9,4.9,0,0,1-.4-1.1c0-.4-.1-.8-.1-1.2a11.1,11.1,0,0,1-3.9,2.9,10.4,10.4,0,0,1-4.7,1,9.5,9.5,0,0,1-3-.4,7.5,7.5,0,0,1-2.5-1.3,5.1,5.1,0,0,1-1.7-2.1,6.5,6.5,0,0,1-.6-2.9c0-4,2.7-6.3,8.1-7Zm4.6,1.3a14,14,0,0,1-3.5,1l-3.5.3a9.8,9.8,0,0,0-4.8,1.4,4,4,0,0,0-1.8,3.6,3.5,3.5,0,0,0,.5,1.8,3.8,3.8,0,0,0,1.1,1.4,4.6,4.6,0,0,0,1.6.7,6.3,6.3,0,0,0,1.9.3,15.5,15.5,0,0,0,3.1-.4,8,8,0,0,0,2.8-1.3,5.5,5.5,0,0,0,1.9-2.1,5.8,5.8,0,0,0,.7-3Z"/><path class="cls-1" d="M85.2,109.9v-2.6H99.1v16.8H96.5v-5.6a13.5,13.5,0,0,1-2,2.7,12.2,12.2,0,0,1-2.5,2,15.1,15.1,0,0,1-3.4,1.3,17.6,17.6,0,0,1-4.2.4,13.2,13.2,0,0,1-5.7-1.1,12.8,12.8,0,0,1-4.5-3.2,13.9,13.9,0,0,1-2.9-5.4,23.7,23.7,0,0,1-1.1-7.5,24.1,24.1,0,0,1,.9-6.7,14.2,14.2,0,0,1,2.8-5.3,13.7,13.7,0,0,1,4.6-3.6,15.4,15.4,0,0,1,6.7-1.3,18.6,18.6,0,0,1,4.8.6,13.6,13.6,0,0,1,4,2,11.1,11.1,0,0,1,3,3.1,12.6,12.6,0,0,1,1.7,4.6H95.6a9.7,9.7,0,0,0-1.4-3.3,10.4,10.4,0,0,0-2.3-2.4,14,14,0,0,0-3-1.5,13.4,13.4,0,0,0-3.5-.5,13.1,13.1,0,0,0-5.5,1.1,11.8,11.8,0,0,0-3.8,3.2,12.8,12.8,0,0,0-2.1,4.9,24.8,24.8,0,0,0-.7,6.3A17,17,0,0,0,74,114a13.6,13.6,0,0,0,2.3,4.3,11.6,11.6,0,0,0,3.7,2.9,10.2,10.2,0,0,0,5,1.1,12.4,12.4,0,0,0,2.7-.3,14.3,14.3,0,0,0,2.7-.9,10.8,10.8,0,0,0,2.4-1.8,9.5,9.5,0,0,0,2-2.7,10.9,10.9,0,0,0,1-3.2,33.9,33.9,0,0,0,.4-3.5Z"/><path class="cls-1" d="M116.5,124.7a11.6,11.6,0,0,1-4.2-.8,9.3,9.3,0,0,1-3.5-2.3,12.8,12.8,0,0,1-2.3-3.8,15,15,0,0,1-.8-5.4,18.6,18.6,0,0,1,.6-4.8,12.2,12.2,0,0,1,2.1-3.9,9.3,9.3,0,0,1,3.3-2.6,10.6,10.6,0,0,1,4.8-1,9.9,9.9,0,0,1,4.7,1,8.8,8.8,0,0,1,3.4,2.6,10.3,10.3,0,0,1,2,3.9,18.5,18.5,0,0,1,.7,4.8,16,16,0,0,1-.8,5.1,10.3,10.3,0,0,1-2.2,3.8,9.4,9.4,0,0,1-3.4,2.5A10.5,10.5,0,0,1,116.5,124.7Zm7.9-12.3a16,16,0,0,0-.5-3.9,8,8,0,0,0-1.4-3.1,6.1,6.1,0,0,0-2.4-2.1,8,8,0,0,0-3.6-.7,7,7,0,0,0-3.7.8,6.4,6.4,0,0,0-2.4,2.2,10.9,10.9,0,0,0-1.4,3.1,15.7,15.7,0,0,0-.5,3.7,12.5,12.5,0,0,0,.6,4,7.5,7.5,0,0,0,1.5,3.1,5.2,5.2,0,0,0,2.4,2,7.8,7.8,0,0,0,3.5.8,6.9,6.9,0,0,0,3.6-.9,6.4,6.4,0,0,0,2.4-2.2,8.7,8.7,0,0,0,1.4-3.1A15,15,0,0,0,124.4,112.4Z"/><path class="cls-1" d="M136.3,124.1h-2.7V91.7h2.7v12.8a9.5,9.5,0,0,1,3.6-3.3,11.3,11.3,0,0,1,4.8-1.1,11.1,11.1,0,0,1,4.6,1,9.4,9.4,0,0,1,3.2,2.7,11.4,11.4,0,0,1,1.9,4,14.5,14.5,0,0,1,.7,4.7,18.6,18.6,0,0,1-.6,4.8,10.2,10.2,0,0,1-1.9,3.9,9.2,9.2,0,0,1-3.2,2.6,12.2,12.2,0,0,1-4.9.9l-2.3-.3a10.2,10.2,0,0,1-2.2-.9,10.1,10.1,0,0,1-2.1-1.5,7.5,7.5,0,0,1-1.5-2h-.1Zm0-11.8a13.4,13.4,0,0,0,.6,4,8.1,8.1,0,0,0,1.5,3.1,6.9,6.9,0,0,0,2.4,2.1,7.7,7.7,0,0,0,3.4.8,8.3,8.3,0,0,0,3.2-.6,7.2,7.2,0,0,0,2.5-1.8,9.2,9.2,0,0,0,1.7-2.9,11.4,11.4,0,0,0,.6-3.9,18.4,18.4,0,0,0-.4-4.1,10,10,0,0,0-1.4-3.3,6.4,6.4,0,0,0-2.6-2.3,6.8,6.8,0,0,0-3.6-.8,7.2,7.2,0,0,0-3.3.7,8.8,8.8,0,0,0-2.5,2.2,9,9,0,0,0-1.5,3.1A11,11,0,0,0,136.3,112.3Z"/><path class="cls-1" d="M162.2,95.7v-4h3v4Zm.2,28.4V100.8h2.7v23.3Z"/><path class="cls-1" d="M174.7,113a13.6,13.6,0,0,0,.5,3.6,8.9,8.9,0,0,0,1.5,2.9,6.6,6.6,0,0,0,2.4,2,7.8,7.8,0,0,0,3.5.8,7.7,7.7,0,0,0,4.5-1.4,6.7,6.7,0,0,0,2.5-4h3a12,12,0,0,1-1.3,3.1,9.6,9.6,0,0,1-2,2.5,9,9,0,0,1-2.9,1.6,11.2,11.2,0,0,1-3.8.6,12.2,12.2,0,0,1-4.9-.9,10.6,10.6,0,0,1-3.3-2.6,10.2,10.2,0,0,1-1.9-3.9,18.6,18.6,0,0,1-.6-4.8,15.1,15.1,0,0,1,.7-4.8,13.9,13.9,0,0,1,2.1-4,8.8,8.8,0,0,1,3.4-2.6,9.3,9.3,0,0,1,4.5-1,9.2,9.2,0,0,1,7.5,3.3q2.8,3.3,2.7,9.6Zm15.2-2.2a11.2,11.2,0,0,0-.4-3.2,7.2,7.2,0,0,0-1.4-2.6,5.8,5.8,0,0,0-2.3-1.8,8.3,8.3,0,0,0-3.2-.6,7.9,7.9,0,0,0-3.2.6A10.8,10.8,0,0,0,177,105a13.5,13.5,0,0,0-1.5,2.6,16.7,16.7,0,0,0-.8,3.2Z"/><path class="cls-1" d="M202,124.1h-2.7V100.8H202v4.3h.1a9.5,9.5,0,0,1,2.9-3.9,9.3,9.3,0,0,1,4.7-1.1v3a7,7,0,0,0-3.7.7,6.8,6.8,0,0,0-2.4,2,7.7,7.7,0,0,0-1.2,3.1,22.1,22.1,0,0,0-.4,3.7Z"/><path class="cls-1" d="M218,124.1h-2.7V100.8H218V104a17.4,17.4,0,0,1,3.4-2.8,7.6,7.6,0,0,1,4.1-1.1,10.2,10.2,0,0,1,4,.8,6,6,0,0,1,3.1,2.6,5.5,5.5,0,0,1,1.1,2.5,26.2,26.2,0,0,1,.1,2.8v15.3h-2.7V108.9a6.9,6.9,0,0,0-1.4-4.8c-.9-1-2.5-1.5-4.6-1.5a8,8,0,0,0-2.3.3,7.2,7.2,0,0,0-1.9,1.1l-1.4,1.4a5.6,5.6,0,0,0-.9,1.7,9.8,9.8,0,0,0-.5,2.2c0,.7-.1,1.4-.1,2.2Z"/><path class="cls-1" d="M250.7,124.7a11.6,11.6,0,0,1-4.2-.8,9.8,9.8,0,0,1-3.4-2.3,11,11,0,0,1-2.3-3.8,14.9,14.9,0,0,1-.9-5.4,18.5,18.5,0,0,1,.7-4.8,12,12,0,0,1,2-3.9,9.7,9.7,0,0,1,3.4-2.6,10.2,10.2,0,0,1,4.7-1,10,10,0,0,1,4.8,1,8.8,8.8,0,0,1,3.4,2.6,12,12,0,0,1,2,3.9,18.6,18.6,0,0,1,.6,4.8,16.1,16.1,0,0,1-.7,5.1,11.9,11.9,0,0,1-2.2,3.8,10.3,10.3,0,0,1-3.4,2.5A11,11,0,0,1,250.7,124.7Zm8-12.3a16,16,0,0,0-.5-3.9,9.8,9.8,0,0,0-1.4-3.1,6.1,6.1,0,0,0-2.4-2.1,8.2,8.2,0,0,0-3.7-.7,6.8,6.8,0,0,0-3.6.8,6.4,6.4,0,0,0-2.4,2.2,8.7,8.7,0,0,0-1.4,3.1,15.7,15.7,0,0,0-.5,3.7,16.2,16.2,0,0,0,.5,4,11.2,11.2,0,0,0,1.5,3.1,6,6,0,0,0,2.5,2,7.4,7.4,0,0,0,3.4.8,7.2,7.2,0,0,0,3.7-.9,6.4,6.4,0,0,0,2.4-2.2,10.9,10.9,0,0,0,1.4-3.1A15,15,0,0,0,258.7,112.4Z"/><path class="cls-1" d="M68.5,174.1l12.7-32.4h3.5l12.4,32.4H94l-3.8-10.2H75.5l-3.9,10.2Zm8-12.8H89.2l-6.4-17Z"/><path class="cls-1" d="M105.2,174.1h-2.7V141.7h2.7v12.8a9.5,9.5,0,0,1,3.6-3.3,11.2,11.2,0,0,1,4.7-1.1,10.8,10.8,0,0,1,4.6,1,9.8,9.8,0,0,1,3.3,2.7,13.4,13.4,0,0,1,1.9,4,17.8,17.8,0,0,1,.6,4.7,18.6,18.6,0,0,1-.6,4.8,10,10,0,0,1-1.8,3.9,10.6,10.6,0,0,1-3.3,2.6,11.4,11.4,0,0,1-4.8.9,9.1,9.1,0,0,1-2.3-.3,10.9,10.9,0,0,1-2.3-.9,9.5,9.5,0,0,1-2-1.5,7.5,7.5,0,0,1-1.5-2h-.1Zm0-11.8a17.5,17.5,0,0,0,.5,4,12.8,12.8,0,0,0,1.5,3.1,7.2,7.2,0,0,0,2.5,2.1,7.4,7.4,0,0,0,3.4.8,7.8,7.8,0,0,0,3.1-.6,7.6,7.6,0,0,0,2.6-1.8,9,9,0,0,0,1.6-2.9,11.4,11.4,0,0,0,.6-3.9,13.9,13.9,0,0,0-.3-4.1,8.4,8.4,0,0,0-1.5-3.3,6.1,6.1,0,0,0-2.5-2.3,6.8,6.8,0,0,0-3.6-.8,7,7,0,0,0-3.3.7,8.8,8.8,0,0,0-2.5,2.2,9.1,9.1,0,0,0-1.6,3.1A14.4,14.4,0,0,0,105.2,162.3Z"/><path class="cls-1" d="M131.1,145.7v-4h3v4Zm.1,28.4V150.8h2.7v23.3Z"/><path class="cls-1" d="M143.6,163a13.6,13.6,0,0,0,.5,3.6,8.7,8.7,0,0,0,1.4,2.9,6.9,6.9,0,0,0,2.5,2,7.4,7.4,0,0,0,3.4.8,7.8,7.8,0,0,0,4.6-1.4,7.3,7.3,0,0,0,2.5-4h3a16.9,16.9,0,0,1-1.3,3.1,9.6,9.6,0,0,1-2,2.5,9,9,0,0,1-2.9,1.6,11.4,11.4,0,0,1-3.9.6,12.1,12.1,0,0,1-4.8-.9,9.5,9.5,0,0,1-3.3-2.6,12,12,0,0,1-2-3.9,18.6,18.6,0,0,1-.6-4.8,15.1,15.1,0,0,1,.8-4.8,11.8,11.8,0,0,1,2.1-4,10.3,10.3,0,0,1,15.4-.3q2.7,3.3,2.7,9.6Zm15.2-2.2a11.3,11.3,0,0,0-.5-3.2,7.2,7.2,0,0,0-1.4-2.6,5.8,5.8,0,0,0-2.3-1.8,7.9,7.9,0,0,0-3.2-.6,8.3,8.3,0,0,0-3.2.6,10.2,10.2,0,0,0-2.3,1.8,9.7,9.7,0,0,0-1.5,2.6,11.6,11.6,0,0,0-.8,3.2Z"/><path class="cls-1" d="M170.9,174.1h-2.7V150.8h2.7v4.3h.1a8,8,0,0,1,2.9-3.9,9.3,9.3,0,0,1,4.7-1.1v3a7.4,7.4,0,0,0-3.8.7,5.7,5.7,0,0,0-2.3,2,9.7,9.7,0,0,0-1.3,3.1,22.2,22.2,0,0,0-.3,3.7Z"/><path class="cls-1" d="M192.4,174.2l-1.3.3-1.8.2a4.1,4.1,0,0,1-3.1-1,5,5,0,0,1-1.1-3.6V153h-3.3v-2.2h3.3v-6.5h2.7v6.5h4.4V153h-4.4v16a7.1,7.1,0,0,0,.1,1.5,3,3,0,0,0,.2,1,1.3,1.3,0,0,0,.7.6l1.4.2h1.1l1.1-.2Z"/><path class="cls-1" d="M207.1,174.7a11.6,11.6,0,0,1-4.2-.8,8.9,8.9,0,0,1-3.4-2.3,11.2,11.2,0,0,1-2.4-3.8,17.5,17.5,0,0,1-.8-5.4,15.1,15.1,0,0,1,.7-4.8,10.3,10.3,0,0,1,2-3.9,8.8,8.8,0,0,1,3.4-2.6,9.9,9.9,0,0,1,4.7-1,10.6,10.6,0,0,1,4.8,1,9.3,9.3,0,0,1,3.3,2.6,10.3,10.3,0,0,1,2,3.9,15.1,15.1,0,0,1,.7,4.8,16,16,0,0,1-.8,5.1,10.3,10.3,0,0,1-2.2,3.8,8.6,8.6,0,0,1-3.4,2.5A10.5,10.5,0,0,1,207.1,174.7Zm7.9-12.3a16.1,16.1,0,0,0-.4-3.9,9.8,9.8,0,0,0-1.4-3.1,7.2,7.2,0,0,0-2.5-2.1,8,8,0,0,0-3.6-.7,6.8,6.8,0,0,0-3.6.8,6.7,6.7,0,0,0-2.5,2.2,10.9,10.9,0,0,0-1.4,3.1,15.5,15.5,0,0,0-.4,3.7,12.5,12.5,0,0,0,.5,4,7.5,7.5,0,0,0,1.5,3.1,6,6,0,0,0,2.5,2,7.4,7.4,0,0,0,3.4.8,6.9,6.9,0,0,0,3.6-.9,7.5,7.5,0,0,0,2.5-2.2,10.9,10.9,0,0,0,1.4-3.1A15,15,0,0,0,215,162.4Z"/><path class="cls-1" d="M74.3,195.1a13.3,13.3,0,0,1,10-4c5.4,0,9.3,1.8,11.8,5.3a11.4,11.4,0,0,1,2.2,6.1H91.6a8.7,8.7,0,0,0-1.7-3.5,6.5,6.5,0,0,0-5.4-2.2,6.6,6.6,0,0,0-5.7,3c-1.3,2-2,4.8-2,8.4s.7,6.4,2.2,8.2a6.8,6.8,0,0,0,5.6,2.7,6.6,6.6,0,0,0,5.3-2.3,10.5,10.5,0,0,0,1.6-3.8h6.8a14.4,14.4,0,0,1-4.5,8.6,12.5,12.5,0,0,1-9.1,3.4c-4.6,0-8.3-1.5-10.9-4.5s-4-7.1-4-12.4S71.3,198.1,74.3,195.1Z"/><path class="cls-1" d="M124.3,221.1c-2,2.5-5.1,3.8-9.2,3.8s-7.2-1.3-9.2-3.8a14,14,0,0,1-3-9,14.4,14.4,0,0,1,3-9c2-2.5,5.1-3.8,9.2-3.8s7.2,1.3,9.2,3.8a13.9,13.9,0,0,1,3.1,9A13.5,13.5,0,0,1,124.3,221.1Zm-5-3.4a9.1,9.1,0,0,0,1.5-5.6,8.8,8.8,0,0,0-1.5-5.5,5.4,5.4,0,0,0-8.4,0,8.8,8.8,0,0,0-1.5,5.5,9.1,9.1,0,0,0,1.5,5.6,5.6,5.6,0,0,0,8.4,0Z"/><path class="cls-1" d="M139.4,224.1h-6.3V191.7h6.3Z"/><path class="cls-1" d="M166.6,221.1c-2,2.5-5.1,3.8-9.2,3.8s-7.2-1.3-9.2-3.8a13.5,13.5,0,0,1-3.1-9,13.9,13.9,0,0,1,3.1-9c2-2.5,5-3.8,9.2-3.8s7.2,1.3,9.2,3.8a14.4,14.4,0,0,1,3,9A14,14,0,0,1,166.6,221.1Zm-5-3.4a9.8,9.8,0,0,0,1.4-5.6,9.5,9.5,0,0,0-1.4-5.5,5.1,5.1,0,0,0-4.3-2,5,5,0,0,0-4.2,2,8.8,8.8,0,0,0-1.5,5.5,9.1,9.1,0,0,0,1.5,5.6,5,5,0,0,0,4.2,1.9A5,5,0,0,0,161.6,217.7Z"/><path class="cls-1" d="M205.1,200.2a7,7,0,0,1,2.8,2.2,5.9,5.9,0,0,1,1.3,3,16,16,0,0,1,.3,3.6v15.1H203V208.8a4.8,4.8,0,0,0-.4-2.2,3.2,3.2,0,0,0-3.1-1.7,3.6,3.6,0,0,0-3.6,2.2,6.8,6.8,0,0,0-.5,2.7v14.3h-6.3V209.8a8.3,8.3,0,0,0-.4-3.1,3.2,3.2,0,0,0-3.1-1.7c-1.8,0-3,.6-3.6,1.7a6,6,0,0,0-.5,3v14.4h-6.4V200.2h6.1v3.5a9.3,9.3,0,0,1,2.2-2.7,7.7,7.7,0,0,1,4.7-1.4,7.4,7.4,0,0,1,4.4,1.2,6.2,6.2,0,0,1,2.1,2.9,7.7,7.7,0,0,1,3.1-3.1,8.8,8.8,0,0,1,4.3-1A8.5,8.5,0,0,1,205.1,200.2Z"/><path class="cls-1" d="M236.8,203a13.8,13.8,0,0,1,2.7,8.8,15,15,0,0,1-2.7,9.2,8.4,8.4,0,0,1-7.4,3.7,8.8,8.8,0,0,1-4.8-1.2,10.7,10.7,0,0,1-2.3-2.4v3h-6.2V191.7h6.3v11.5a10.1,10.1,0,0,1,2.6-2.5,8.4,8.4,0,0,1,4.4-1.1A8.9,8.9,0,0,1,236.8,203Zm-5.2,14.6a8.9,8.9,0,0,0,1.3-5.2,12.5,12.5,0,0,0-.6-4.2,4.7,4.7,0,0,0-4.7-3.1,4.6,4.6,0,0,0-4.7,3.1,10.2,10.2,0,0,0-.7,4.2,8.8,8.8,0,0,0,1.4,5.1,4.6,4.6,0,0,0,4.2,2A4.4,4.4,0,0,0,231.6,217.6Z"/><path class="cls-1" d="M251.4,197.3H245v-5.8h6.4Zm-6.4,2.8h6.4v24H245Z"/><path class="cls-1" d="M268.1,209.5a6.5,6.5,0,0,0,2.5-.6,1.7,1.7,0,0,0,1.3-1.7,2.2,2.2,0,0,0-1-2.1,8,8,0,0,0-3.1-.5,3.7,3.7,0,0,0-3.1,1.1,3.4,3.4,0,0,0-.9,2.2h-6.1a10.4,10.4,0,0,1,1.8-5.2c1.7-2.1,4.5-3.2,8.6-3.2a16,16,0,0,1,7,1.6c2,1,3,3,3,5.9v11c0,.7.1,1.7.1,2.7a3,3,0,0,0,.4,1.7,1.6,1.6,0,0,0,.9.7v1h-6.8a10.3,10.3,0,0,1-.4-1.4,5.9,5.9,0,0,1-.2-1.4,13.3,13.3,0,0,1-3,2.3,9,9,0,0,1-4.6,1.2,8,8,0,0,1-5.4-1.8,6.8,6.8,0,0,1-2.1-5.3c0-2.9,1.1-5.1,3.4-6.4a15.3,15.3,0,0,1,5.5-1.5Zm3.8,2.9a3.4,3.4,0,0,1-1.2.6l-1.7.5-1.4.2a9,9,0,0,0-2.9.9,2.7,2.7,0,0,0-1.5,2.6,3,3,0,0,0,.9,2.4,4.1,4.1,0,0,0,2.2.7,6.4,6.4,0,0,0,3.8-1.2c1.2-.8,1.8-2.3,1.8-4.3Z"/><rect class="cls-2" x="2.1" y="-2.1" width="10.7" height="14.92" transform="translate(12.8 -2.1) rotate(90)"/><rect class="cls-1" x="2.1" y="8.6" width="10.7" height="14.92" transform="translate(23.5 8.6) rotate(90)"/><rect class="cls-3" x="2.1" y="19.3" width="10.7" height="14.92" transform="translate(34.3 19.3) rotate(90)"/><rect class="cls-4" x="2.1" y="30.1" width="10.7" height="14.92" transform="translate(45 30.1) rotate(90)"/><rect class="cls-5" x="2.1" y="40.8" width="10.7" height="14.92" transform="translate(55.7 40.8) rotate(90)"/><rect class="cls-6" x="2.1" y="51.5" width="10.7" height="14.92" transform="translate(66.4 51.5) rotate(90)"/><rect class="cls-7" x="2.1" y="62.2" width="10.7" height="14.92" transform="translate(77.1 62.2) rotate(90)"/><rect class="cls-4" x="2.1" y="72.9" width="10.7" height="14.92" transform="translate(87.9 72.9) rotate(90)"/><rect class="cls-2" x="2.1" y="83.7" width="10.7" height="14.92" transform="translate(98.6 83.7) rotate(90)"/><rect class="cls-1" x="2.1" y="94.4" width="10.7" height="14.92" transform="translate(109.3 94.4) rotate(90)"/><rect class="cls-8" x="2.1" y="105.1" width="10.7" height="14.92" transform="translate(120 105.1) rotate(90)"/><rect class="cls-5" x="2.1" y="115.8" width="10.7" height="14.92" transform="translate(130.7 115.8) rotate(90)"/><rect class="cls-7" x="2.1" y="126.5" width="10.7" height="14.92" transform="translate(141.5 126.5) rotate(90)"/><rect class="cls-9" x="2.1" y="137.3" width="10.7" height="14.92" transform="translate(152.2 137.3) rotate(90)"/><rect class="cls-1" x="2.1" y="148" width="10.7" height="14.92" transform="translate(162.9 148) rotate(90)"/><rect class="cls-10" x="2.1" y="158.7" width="10.7" height="14.92" transform="translate(173.6 158.7) rotate(90)"/><rect class="cls-11" x="2.1" y="169.4" width="10.7" height="14.92" transform="translate(184.3 169.4) rotate(90)"/><rect class="cls-4" x="2.1" y="180.1" width="10.7" height="14.92" transform="translate(195.1 180.1) rotate(90)"/><rect class="cls-5" x="2.1" y="190.9" width="10.7" height="14.92" transform="translate(205.8 190.9) rotate(90)"/><rect class="cls-8" x="2.1" y="201.6" width="10.7" height="14.92" transform="translate(216.5 201.6) rotate(90)"/><rect class="cls-2" x="2.1" y="212.3" width="10.7" height="14.92" transform="translate(227.2 212.3) rotate(90)"/><rect class="cls-12" x="2.1" y="223" width="10.7" height="14.92" transform="translate(237.9 223) rotate(90)"/><rect class="cls-9" x="2.1" y="233.7" width="10.7" height="14.92" transform="translate(248.7 233.7) rotate(90)"/><rect class="cls-1" x="2.1" y="244.5" width="10.7" height="14.92" transform="translate(259.4 244.5) rotate(90)"/><rect class="cls-13" x="2.1" y="255.2" width="10.7" height="14.92" transform="translate(270.1 255.2) rotate(90)"/></g></g></svg>